<svg xmlns="http://www.w3.org/2000/svg" width="446.0" height="296.0" viewBox="0 0 446.0 296.0" role="img" aria-label="Preview of operation plan golden:extended_18_bolt_circle_6">
<title>Operation plan preview golden:extended_18_bolt_circle_6</title>
<rect width="100%" height="100%" fill="#ffffff"/>
<g fill="none" stroke="#2e7d32" stroke-width="0.70" stroke-linejoin="round">
<polygon points="56.00,240.00 376.00,240.00 376.00,40.00 56.00,40.00"/>
<circle cx="286.00" cy="140.00" r="10.00"/>
<circle cx="251.00" cy="79.38" r="10.00"/>
<circle cx="181.00" cy="79.38" r="10.00"/>
<circle cx="146.00" cy="140.00" r="10.00"/>
<circle cx="181.00" cy="200.62" r="10.00"/>
<circle cx="251.00" cy="200.62" r="10.00"/>
<line x1="56.00" y1="240.00" x2="376.00" y2="240.00"/>
<line x1="56.00" y1="240.00" x2="56.00" y2="40.00"/>
<text x="146.00" y="140.00" fill="#2e7d32" stroke="none">6 × Ø10</text>
<line x1="56.00" y1="240.00" x2="146.00" y2="240.00"/>
<line x1="56.00" y1="240.00" x2="56.00" y2="140.00"/>
<line x1="56.00" y1="240.00" x2="181.00" y2="240.00"/>
<line x1="56.00" y1="240.00" x2="56.00" y2="200.62"/>
<line x1="56.00" y1="240.00" x2="181.00" y2="240.00"/>
<line x1="56.00" y1="240.00" x2="56.00" y2="79.38"/>
<line x1="56.00" y1="240.00" x2="251.00" y2="240.00"/>
<line x1="56.00" y1="240.00" x2="56.00" y2="200.62"/>
<line x1="56.00" y1="240.00" x2="251.00" y2="240.00"/>
<line x1="56.00" y1="240.00" x2="56.00" y2="79.38"/>
<line x1="56.00" y1="240.00" x2="286.00" y2="240.00"/>
<line x1="56.00" y1="240.00" x2="56.00" y2="140.00"/>
<line x1="146.00" y1="140.00" x2="286.00" y2="140.00"/>
<line x1="181.00" y1="200.62" x2="181.00" y2="79.38"/>
<line x1="181.00" y1="200.62" x2="251.00" y2="200.62"/>
<line x1="181.00" y1="79.38" x2="251.00" y2="79.38"/>
<line x1="251.00" y1="200.62" x2="251.00" y2="79.38"/>
<text x="406.00" y="40.00" fill="#2e7d32" stroke="none">A | 6 | Ø10</text>
</g></svg>